# This file uses centimeters as units for non-parametric coordinates.

mtllib TreeBlockout.mtl
g default
v 1.071861 27.132233 -1.462360
v -0.844872 27.132233 -2.207031
v -2.761604 27.132233 -1.462360
v -3.555534 27.132233 0.335442
v -2.761604 27.132233 2.133244
v -0.844872 27.132233 2.877914
v 1.071861 27.132233 2.133244
v 1.865791 27.132233 0.335442
v 2.379555 27.672523 -1.992889
v -0.844872 27.672523 -2.957317
v -4.069298 27.672523 -1.992889
v -5.033722 27.672523 0.335442
v -4.069298 27.672523 2.663773
v -0.844872 27.672523 3.628201
v 2.379555 27.672523 2.663773
v 3.343979 27.672523 0.335442
v 6.819923 23.737734 -7.329353
v -0.844872 23.737734 -10.504211
v -8.509666 23.737734 -7.329353
v -11.684525 23.737734 0.335442
v -8.509666 23.737734 8.000237
v -0.844872 23.737734 11.175095
v 6.819923 23.737734 8.000237
v 9.994781 23.737734 0.335442
v 2.987526 51.668915 -3.496956
v -0.844872 51.668915 -5.084385
v -4.677269 51.668915 -3.496956
v -6.264702 51.668915 0.335442
v -4.677269 51.668915 4.167839
v -0.844872 51.668915 5.755268
v 2.987526 51.668915 4.167839
v 4.574959 51.668915 0.335442
v 1.511383 -2.905415 -2.869846
v -0.844872 -2.905415 -4.197521
v -0.844872 -2.905415 0.335442
v -3.201126 -2.905415 -2.869846
v -4.616684 -2.905415 0.335442
v -3.201126 -2.905415 3.540730
v -0.844872 -2.905415 4.868404
v 1.511383 -2.905415 3.540730
v 2.926941 -2.905415 0.335442
v 5.969284 41.349277 -6.478718
v -0.844872 41.349277 -9.301231
v -7.659027 41.349277 -6.478718
v -10.481544 41.349277 0.335442
v -7.659027 41.349277 7.149601
v -0.844872 41.349277 9.972115
v 5.969284 41.349277 7.149601
v 8.791801 41.349277 0.335442
v 2.720909 55.567703 -3.230335
v -0.844872 55.567703 -4.707333
v -0.844872 81.555740 0.335442
v -4.410652 55.567703 -3.230335
v -5.887642 55.567703 0.335442
v -4.410652 55.567703 3.901218
v -0.844872 55.567703 5.378216
v 2.720909 55.567703 3.901218
v 4.197899 55.567703 0.335442
vt 0.122555 0.073465
vt 0.114585 0.074218
vt 0.106829 0.075675
vt 0.099711 0.078247
vt 0.093241 0.080984
vt 0.145362 0.078307
vt 0.138344 0.075512
vt 0.130566 0.074168
vt 0.124195 0.066756
vt 0.113720 0.070584
vt 0.102043 0.070651
vt 0.094378 0.074219
vt 0.156773 0.084386
vt 0.147823 0.075957
vt 0.139599 0.069058
vt 0.132244 0.065997
vt 0.870224 0.243769
vt 0.849247 0.242101
vt 0.828579 0.238230
vt 0.808440 0.232080
vt 0.952758 0.227068
vt 0.932806 0.235200
vt 0.912222 0.240435
vt 0.891288 0.243234
vt 0.871807 0.168834
vt 0.858801 0.167940
vt 0.846117 0.166019
vt 0.834083 0.163316
vt 0.920454 0.162634
vt 0.909523 0.165101
vt 0.897508 0.167286
vt 0.884818 0.168604
vt 0.120873 0.197497
vt 0.879125 0.035564
vt 0.115547 0.182650
vt 0.121129 0.183027
vt 0.110043 0.184282
vt 0.102055 0.188253
vt 0.149940 0.193047
vt 0.143786 0.188092
vt 0.136829 0.186120
vt 0.128623 0.184188
vt 0.873590 0.141571
vt 0.860345 0.140262
vt 0.846723 0.137423
vt 0.832130 0.132973
vt 0.932151 0.134081
vt 0.915293 0.137478
vt 0.900546 0.140032
vt 0.886853 0.141454
vt 0.875685 0.103972
vt 0.865806 0.102992
vt 0.856115 0.100773
vt 0.846816 0.097213
vt 0.914480 0.095482
vt 0.905237 0.099595
vt 0.895533 0.102302
vt 0.885632 0.103744
vt 0.137565 0.038314
vt 0.122413 0.036542
vt 0.153955 0.042554
vt 0.171254 0.054900
vt 0.182276 0.078405
vt 0.073546 0.056843
vt 0.089788 0.043980
vt 0.106063 0.037219
vt 0.838380 0.092062
vt 0.815513 0.127077
vt 0.823047 0.160275
vt 0.092623 0.193995
vt 0.151556 0.081712
vt 0.062614 0.082775
vt 0.789078 0.223455
vt 0.090271 0.081151
vn 0.253095 -0.898538 -0.358571
vn -0.000000 -0.846138 -0.532964
vn 0.000000 -0.896430 0.443186
vn -0.314494 -0.889358 0.331867
vn -0.253095 -0.898538 -0.358571
vn 0.314494 -0.889358 0.331867
vn -0.337688 -0.941258 0.000000
vn 0.474244 -0.880393 -0.000000
vn -0.253095 -0.898538 0.358571
vn 0.314494 -0.889358 -0.331867
vn 0.000000 -0.846138 0.532964
vn 0.000000 -0.896430 -0.443186
vn 0.253095 -0.898538 0.358571
vn -0.314494 -0.889358 -0.331867
vn 0.337688 -0.941258 0.000000
vn -0.474244 -0.880393 0.000000
vn 0.000000 -0.879878 0.475200
vn -0.322898 -0.874212 0.362616
vn 0.322898 -0.874212 0.362616
vn 0.509187 -0.860656 0.000000
vn 0.322898 -0.874212 -0.362616
vn 0.000000 -0.879878 -0.475200
vn -0.322898 -0.874212 -0.362616
vn -0.509187 -0.860656 0.000000
vn 0.376678 0.176458 -0.909382
vn 0.376678 0.176458 -0.909382
vn 0.376678 0.176458 -0.909382
vn 0.376678 0.176458 -0.909382
vn -0.376678 0.176458 -0.909382
vn -0.376678 0.176458 -0.909382
vn -0.376678 0.176458 -0.909382
vn -0.376678 0.176458 -0.909382
vn -0.909382 0.176458 -0.376678
vn -0.909382 0.176458 -0.376678
vn -0.909382 0.176458 -0.376678
vn -0.909382 0.176458 -0.376678
vn -0.909382 0.176458 0.376678
vn -0.909382 0.176458 0.376678
vn -0.909382 0.176458 0.376678
vn -0.909382 0.176458 0.376678
vn -0.376678 0.176458 0.909382
vn -0.376678 0.176458 0.909382
vn -0.376678 0.176458 0.909382
vn -0.376678 0.176458 0.909382
vn 0.376678 0.176458 0.909382
vn 0.376678 0.176458 0.909382
vn 0.376678 0.176458 0.909382
vn 0.376678 0.176458 0.909382
vn 0.909382 0.176458 0.376678
vn 0.909382 0.176458 0.376678
vn 0.909382 0.176458 0.376678
vn 0.909382 0.176458 0.376678
vn 0.909382 0.176458 -0.376678
vn 0.909382 0.176458 -0.376678
vn 0.909382 0.176458 -0.376678
vn 0.909382 0.176458 -0.376678
vn 0.000000 -1.000000 0.000000
vn 0.000000 -1.000000 -0.000000
vn 0.000000 -1.000000 0.000000
vn 0.000000 -1.000000 0.000000
vn 0.000000 -1.000000 0.000000
vn 0.000000 -1.000000 0.000000
vn 0.000000 -1.000000 0.000000
vn 0.000000 -1.000000 0.000000
vn 0.000000 -1.000000 -0.000000
vn 0.376679 0.176458 -0.909382
vn 0.376679 0.176458 -0.909382
vn 0.376679 0.176458 -0.909382
vn -0.376679 0.176458 -0.909382
vn -0.376679 0.176458 -0.909382
vn -0.376679 0.176458 -0.909382
vn -0.909382 0.176458 -0.376678
vn -0.909383 0.176458 -0.376678
vn -0.909382 0.176458 -0.376678
vn -0.909382 0.176458 0.376678
vn -0.909382 0.176458 0.376678
vn -0.909382 0.176458 0.376678
vn -0.376679 0.176458 0.909382
vn -0.376679 0.176458 0.909382
vn -0.376679 0.176458 0.909382
vn 0.376679 0.176458 0.909382
vn 0.376679 0.176458 0.909382
vn 0.376679 0.176458 0.909382
vn 0.909382 0.176458 0.376678
vn 0.909382 0.176458 0.376678
vn 0.909382 0.176458 0.376678
vn 0.909382 0.176458 -0.376678
vn 0.909382 0.176458 -0.376678
vn 0.909382 0.176458 -0.376678
vn 0.435738 0.054006 -0.898452
vn 0.435738 0.054006 -0.898452
vn 0.435738 0.054006 -0.898452
vn 0.435738 0.054006 -0.898452
vn -0.435738 0.054006 -0.898452
vn -0.435738 0.054006 -0.898452
vn -0.435738 0.054006 -0.898452
vn -0.435738 0.054006 -0.898452
vn -0.914289 0.032299 -0.403773
vn -0.914289 0.032299 -0.403773
vn -0.914289 0.032299 -0.403773
vn -0.914289 0.032299 -0.403773
vn -0.914289 0.032299 0.403773
vn -0.914289 0.032299 0.403773
vn -0.914289 0.032299 0.403773
vn -0.914289 0.032299 0.403773
vn -0.435738 0.054006 0.898452
vn -0.435738 0.054006 0.898452
vn -0.435738 0.054006 0.898452
vn -0.435738 0.054006 0.898452
vn 0.435738 0.054006 0.898452
vn 0.435738 0.054006 0.898452
vn 0.435738 0.054006 0.898452
vn 0.435738 0.054006 0.898452
vn 0.914289 0.032299 0.403773
vn 0.914289 0.032299 0.403773
vn 0.914289 0.032299 0.403773
vn 0.914289 0.032299 0.403773
vn 0.914289 0.032299 -0.403773
vn 0.914289 0.032299 -0.403773
vn 0.914289 0.032299 -0.403773
vn 0.914289 0.032299 -0.403773
vn -0.358020 -0.353189 0.864338
vn -0.358020 -0.353189 0.864338
vn -0.358020 -0.353189 0.864338
vn -0.358020 -0.353189 0.864338
vn 0.358020 -0.353189 0.864338
vn 0.358020 -0.353189 0.864338
vn 0.358020 -0.353189 0.864338
vn 0.358020 -0.353189 0.864338
vn 0.864338 -0.353188 0.358021
vn 0.864338 -0.353188 0.358021
vn 0.864338 -0.353188 0.358021
vn 0.864338 -0.353188 0.358021
vn 0.864337 -0.353188 -0.358021
vn 0.864337 -0.353188 -0.358021
vn 0.864337 -0.353188 -0.358021
vn 0.864337 -0.353188 -0.358021
vn 0.358020 -0.353189 -0.864338
vn 0.358020 -0.353189 -0.864338
vn 0.358020 -0.353189 -0.864338
vn 0.358020 -0.353189 -0.864338
vn -0.358020 -0.353189 -0.864338
vn -0.358020 -0.353189 -0.864338
vn -0.358020 -0.353189 -0.864338
vn -0.358020 -0.353189 -0.864338
vn -0.864338 -0.353188 -0.358021
vn -0.864338 -0.353188 -0.358021
vn -0.864338 -0.353188 -0.358021
vn -0.864338 -0.353188 -0.358021
vn -0.864337 -0.353188 0.358021
vn -0.864337 -0.353188 0.358021
vn -0.864337 -0.353188 0.358021
vn -0.864337 -0.353188 0.358021
vn 0.366695 0.286030 -0.885281
vn 0.366695 0.286030 -0.885281
vn 0.366695 0.286030 -0.885281
vn 0.366695 0.286030 -0.885281
vn -0.366695 0.286030 -0.885281
vn -0.366695 0.286030 -0.885281
vn -0.366695 0.286030 -0.885281
vn -0.366695 0.286030 -0.885281
vn -0.885281 0.286030 -0.366695
vn -0.885281 0.286030 -0.366695
vn -0.885281 0.286030 -0.366695
vn -0.885281 0.286030 -0.366695
vn -0.885281 0.286030 0.366695
vn -0.885281 0.286030 0.366695
vn -0.885281 0.286030 0.366695
vn -0.885281 0.286030 0.366695
vn -0.366695 0.286030 0.885281
vn -0.366695 0.286030 0.885281
vn -0.366695 0.286030 0.885281
vn -0.366695 0.286030 0.885281
vn 0.366695 0.286030 0.885281
vn 0.366695 0.286030 0.885281
vn 0.366695 0.286030 0.885281
vn 0.366695 0.286030 0.885281
vn 0.885281 0.286030 0.366695
vn 0.885281 0.286030 0.366695
vn 0.885281 0.286030 0.366695
vn 0.885281 0.286030 0.366695
vn 0.885281 0.286030 -0.366695
vn 0.885281 0.286030 -0.366695
vn 0.885281 0.286030 -0.366695
vn 0.885281 0.286030 -0.366695
s 1
g pCone3
usemtl standardSurface4SG
f 1/1/1 2/2/2 10/10/3 9/9/4
f 2/2/2 3/3/5 11/11/6 10/10/3
f 3/3/5 4/4/7 12/12/8 11/11/6
f 4/4/7 5/5/9 13/74/10 12/12/8
f 5/71/9 6/6/11 14/14/12 13/13/10
f 6/6/11 7/7/13 15/15/14 14/14/12
f 7/7/13 8/8/15 16/16/16 15/15/14
f 8/8/15 1/1/1 9/9/4 16/16/16
f 9/9/4 10/10/3 18/66/17 17/60/18
f 10/10/3 11/11/6 19/65/19 18/66/17
f 11/11/6 12/12/8 20/64/20 19/65/19
f 12/12/8 13/74/10 21/72/21 20/64/20
f 13/13/10 14/14/12 22/62/22 21/63/21
f 14/14/12 15/15/14 23/61/23 22/62/22
f 15/15/14 16/16/16 24/59/24 23/61/23
f 16/16/16 9/9/4 17/60/18 24/59/24
s off
f 17/17/25 18/18/26 26/26/27 25/25/28
f 18/18/29 19/19/30 27/27/31 26/26/32
f 19/19/33 20/20/34 28/28/35 27/27/36
f 20/20/37 21/73/38 29/69/39 28/28/40
f 21/21/41 22/22/42 30/30/43 29/29/44
f 22/22/45 23/23/46 31/31/47 30/30/48
f 23/23/49 24/24/50 32/32/51 31/31/52
f 24/24/53 17/17/54 25/25/55 32/32/56
s 2
f 34/35/57 33/36/58 35/33/59
f 36/37/60 34/35/57 35/33/59
f 37/38/61 36/37/60 35/33/59
f 38/70/62 37/38/61 35/33/59
f 39/40/63 38/39/62 35/33/59
f 40/41/64 39/40/63 35/33/59
f 41/42/65 40/41/64 35/33/59
f 33/36/58 41/42/65 35/33/59
s off
f 50/51/66 51/52/67 52/34/68
f 51/52/69 53/53/70 52/34/71
f 53/53/72 54/54/73 52/34/74
f 54/54/75 55/67/76 52/34/77
f 55/55/78 56/56/79 52/34/80
f 56/56/81 57/57/82 52/34/83
f 57/57/84 58/58/85 52/34/86
f 58/58/87 50/51/88 52/34/89
f 2/2/90 1/1/91 33/36/92 34/35/93
f 3/3/94 2/2/95 34/35/96 36/37/97
f 4/4/98 3/3/99 36/37/100 37/38/101
f 5/5/102 4/4/103 37/38/104 38/70/105
f 6/6/106 5/71/107 38/39/108 39/40/109
f 7/7/110 6/6/111 39/40/112 40/41/113
f 8/8/114 7/7/115 40/41/116 41/42/117
f 1/1/118 8/8/119 41/42/120 33/36/121
f 25/25/122 26/26/123 43/44/124 42/43/125
f 26/26/126 27/27/127 44/45/128 43/44/129
f 27/27/130 28/28/131 45/46/132 44/45/133
f 28/28/134 29/69/135 46/68/136 45/46/137
f 29/29/138 30/30/139 47/48/140 46/47/141
f 30/30/142 31/31/143 48/49/144 47/48/145
f 31/31/146 32/32/147 49/50/148 48/49/149
f 32/32/150 25/25/151 42/43/152 49/50/153
f 42/43/154 43/44/155 51/52/156 50/51/157
f 43/44/158 44/45/159 53/53/160 51/52/161
f 44/45/162 45/46/163 54/54/164 53/53/165
f 45/46/166 46/68/167 55/67/168 54/54/169
f 46/47/170 47/48/171 56/56/172 55/55/173
f 47/48/174 48/49/175 57/57/176 56/56/177
f 48/49/178 49/50/179 58/58/180 57/57/181
f 49/50/182 42/43/183 50/51/184 58/58/185
